<?xml version="1.0" encoding="UTF-8" standalone="no"?>
<!DOCTYPE svg PUBLIC "-//W3C//DTD SVG 1.1//EN"
 "http://www.w3.org/Graphics/SVG/1.1/DTD/svg11.dtd">
<!-- Generated by graphviz version 2.47.3 (20210619.1520)
 -->
<!-- Pages: 1 -->
<svg width="2003pt" height="476pt"
 viewBox="0.00 0.00 2003.04 476.00" xmlns="http://www.w3.org/2000/svg" xmlns:xlink="http://www.w3.org/1999/xlink">
<g id="graph0" class="graph" transform="scale(1 1) rotate(0) translate(4 472)">
<polygon fill="white" stroke="transparent" points="-4,4 -4,-472 1999.04,-472 1999.04,4 -4,4"/>
<!-- Han 1st Gen -->
<g id="node1" class="node">
<title>Han 1st Gen</title>
<g id="a_node1"><a xlink:title="Han Wei&#39;s great grandfather: District governor (dao tai)">
<polygon fill="none" stroke="black" points="406,-468 320,-468 320,-432 406,-432 406,-468"/>
<text text-anchor="middle" x="363" y="-446.3" font-family="Times,serif" font-size="14.00">Han 1st Gen</text>
</a>
</g>
</g>
<!-- Han 2nd Gen -->
<g id="node2" class="node">
<title>Han 2nd Gen</title>
<g id="a_node2"><a xlink:title="Unknown Han: County governor in Henan province, by way of exam (scholar) under Qing dynasty">
<polygon fill="none" stroke="black" points="408.5,-396 317.5,-396 317.5,-360 408.5,-360 408.5,-396"/>
<text text-anchor="middle" x="363" y="-374.3" font-family="Times,serif" font-size="14.00">Han 2nd Gen</text>
</a>
</g>
</g>
<!-- Han 1st Gen&#45;&gt;Han 2nd Gen -->
<g id="edge1" class="edge">
<title>Han 1st Gen&#45;&gt;Han 2nd Gen</title>
<path fill="none" stroke="black" d="M363,-431.83C363,-431.83 363,-406.41 363,-406.41"/>
<polygon fill="black" stroke="black" points="366.5,-406.41 363,-396.41 359.5,-406.41 366.5,-406.41"/>
</g>
<!-- Han 3rd Gen #1 -->
<g id="node3" class="node">
<title>Han 3rd Gen #1</title>
<g id="a_node3"><a xlink:title="1st son of county governor Han. War hero, went to a famous army school, was paralyzed in battle. Had a daughter, acted as adoptive father to Han Wei so that Han Wei could get an education for free.">
<polygon fill="none" stroke="black" points="602,-324 496,-324 496,-288 602,-288 602,-324"/>
<text text-anchor="middle" x="549" y="-302.3" font-family="Times,serif" font-size="14.00">Han 3rd Gen #1</text>
</a>
</g>
</g>
<!-- Han 2nd Gen&#45;&gt;Han 3rd Gen #1 -->
<g id="edge2" class="edge">
<title>Han 2nd Gen&#45;&gt;Han 3rd Gen #1</title>
<path fill="none" stroke="black" d="M408.5,-372C463.57,-372 549,-372 549,-372 549,-372 549,-334.03 549,-334.03"/>
<polygon fill="black" stroke="black" points="552.5,-334.03 549,-324.03 545.5,-334.03 552.5,-334.03"/>
</g>
<!-- Han 3rd Gen #2 -->
<g id="node4" class="node">
<title>Han 3rd Gen #2</title>
<g id="a_node4"><a xlink:title="nan">
<polygon fill="none" stroke="black" points="1186,-324 1080,-324 1080,-288 1186,-288 1186,-324"/>
<text text-anchor="middle" x="1133" y="-302.3" font-family="Times,serif" font-size="14.00">Han 3rd Gen #2</text>
</a>
</g>
</g>
<!-- Han 2nd Gen&#45;&gt;Han 3rd Gen #2 -->
<g id="edge3" class="edge">
<title>Han 2nd Gen&#45;&gt;Han 3rd Gen #2</title>
<path fill="none" stroke="black" d="M408.58,-384C573.99,-384 1133,-384 1133,-384 1133,-384 1133,-334.09 1133,-334.09"/>
<polygon fill="black" stroke="black" points="1136.5,-334.09 1133,-324.09 1129.5,-334.09 1136.5,-334.09"/>
</g>
<!-- Han 3rd Gen #3 -->
<g id="node5" class="node">
<title>Han 3rd Gen #3</title>
<g id="a_node5"><a xlink:title="nan">
<polygon fill="none" stroke="black" points="106,-324 0,-324 0,-288 106,-288 106,-324"/>
<text text-anchor="middle" x="53" y="-302.3" font-family="Times,serif" font-size="14.00">Han 3rd Gen #3</text>
</a>
</g>
</g>
<!-- Han 2nd Gen&#45;&gt;Han 3rd Gen #3 -->
<g id="edge4" class="edge">
<title>Han 2nd Gen&#45;&gt;Han 3rd Gen #3</title>
<path fill="none" stroke="black" d="M317.26,-384C231.03,-384 53,-384 53,-384 53,-384 53,-334.09 53,-334.09"/>
<polygon fill="black" stroke="black" points="56.5,-334.09 53,-324.09 49.5,-334.09 56.5,-334.09"/>
</g>
<!-- Han 3rd Gen #4 -->
<g id="node6" class="node">
<title>Han 3rd Gen #4</title>
<g id="a_node6"><a xlink:title="nan">
<polygon fill="none" stroke="black" points="354,-324 248,-324 248,-288 354,-288 354,-324"/>
<text text-anchor="middle" x="301" y="-302.3" font-family="Times,serif" font-size="14.00">Han 3rd Gen #4</text>
</a>
</g>
</g>
<!-- Han 2nd Gen&#45;&gt;Han 3rd Gen #4 -->
<g id="edge5" class="edge">
<title>Han 2nd Gen&#45;&gt;Han 3rd Gen #4</title>
<path fill="none" stroke="black" d="M335.75,-359.83C335.75,-359.83 335.75,-334.41 335.75,-334.41"/>
<polygon fill="black" stroke="black" points="339.25,-334.41 335.75,-324.41 332.25,-334.41 339.25,-334.41"/>
</g>
<!-- Han 3rd Gen #5 -->
<g id="node7" class="node">
<title>Han 3rd Gen #5</title>
<g id="a_node7"><a xlink:title="nan">
<polygon fill="none" stroke="black" points="230,-324 124,-324 124,-288 230,-288 230,-324"/>
<text text-anchor="middle" x="177" y="-302.3" font-family="Times,serif" font-size="14.00">Han 3rd Gen #5</text>
</a>
</g>
</g>
<!-- Han 2nd Gen&#45;&gt;Han 3rd Gen #5 -->
<g id="edge6" class="edge">
<title>Han 2nd Gen&#45;&gt;Han 3rd Gen #5</title>
<path fill="none" stroke="black" d="M317.5,-372C262.43,-372 177,-372 177,-372 177,-372 177,-334.03 177,-334.03"/>
<polygon fill="black" stroke="black" points="180.5,-334.03 177,-324.03 173.5,-334.03 180.5,-334.03"/>
</g>
<!-- Han 3rd Gen #6 -->
<g id="node8" class="node">
<title>Han 3rd Gen #6</title>
<g id="a_node8"><a xlink:title="nan">
<polygon fill="none" stroke="black" points="478,-324 372,-324 372,-288 478,-288 478,-324"/>
<text text-anchor="middle" x="425" y="-302.3" font-family="Times,serif" font-size="14.00">Han 3rd Gen #6</text>
</a>
</g>
</g>
<!-- Han 2nd Gen&#45;&gt;Han 3rd Gen #6 -->
<g id="edge7" class="edge">
<title>Han 2nd Gen&#45;&gt;Han 3rd Gen #6</title>
<path fill="none" stroke="black" d="M390.25,-359.83C390.25,-359.83 390.25,-334.41 390.25,-334.41"/>
<polygon fill="black" stroke="black" points="393.75,-334.41 390.25,-324.41 386.75,-334.41 393.75,-334.41"/>
</g>
<!-- Zhu 3rd Gen (Han Wei Mother) -->
<g id="node9" class="node">
<title>Zhu 3rd Gen (Han Wei Mother)</title>
<g id="a_node9"><a xlink:title="nan">
<ellipse fill="none" stroke="black" cx="936" cy="-306" rx="126.18" ry="18"/>
<text text-anchor="middle" x="936" y="-302.3" font-family="Times,serif" font-size="14.00">Zhu 3rd Gen (Han Wei Mother)</text>
</a>
</g>
</g>
<!-- Han 3rd Gen #5&#45;&gt;Zhu 3rd Gen (Han Wei Mother) -->
<g id="edge8" class="edge">
<title>Han 3rd Gen #5&#45;&gt;Zhu 3rd Gen (Han Wei Mother)</title>
<path fill="none" stroke="black" d="M157.33,-287.94C157.33,-276.56 157.33,-264 159.33,-264 159.33,-262 844.23,-262 844.23,-264 846.23,-264 846.23,-281.24 846.23,-293.63"/>
<path fill="none" stroke="transparent" d="M159.33,-287.94C159.33,-276.56 159.33,-264 159.33,-264 159.33,-264 844.23,-264 844.23,-264 844.23,-264 844.23,-281.24 844.23,-293.63"/>
<path fill="none" stroke="black" d="M161.33,-287.94C161.33,-276.56 161.33,-264 159.33,-264 159.33,-266 844.23,-266 844.23,-264 842.23,-264 842.23,-281.24 842.23,-293.63"/>
</g>
<!-- Han Hou De Mother -->
<g id="node10" class="node">
<title>Han Hou De Mother</title>
<g id="a_node10"><a xlink:title="Had 4 sons, Manchurian origin, distinguished family">
<ellipse fill="none" stroke="black" cx="706" cy="-306" rx="85.59" ry="18"/>
<text text-anchor="middle" x="706" y="-302.3" font-family="Times,serif" font-size="14.00">Han Hou De Mother</text>
</a>
</g>
</g>
<!-- Han 3rd Gen #5&#45;&gt;Han Hou De Mother -->
<g id="edge9" class="edge">
<title>Han 3rd Gen #5&#45;&gt;Han Hou De Mother</title>
<path fill="none" stroke="black" d="M192.67,-287.86C192.67,-281.54 192.67,-276 194.67,-276 194.67,-274 636.47,-274 636.47,-276 638.47,-276 638.47,-286.58 638.47,-295.17"/>
<path fill="none" stroke="transparent" d="M194.67,-287.86C194.67,-281.54 194.67,-276 194.67,-276 194.67,-276 636.47,-276 636.47,-276 636.47,-276 636.47,-286.58 636.47,-295.17"/>
<path fill="none" stroke="black" d="M196.67,-287.86C196.67,-281.54 196.67,-276 194.67,-276 194.67,-278 636.47,-278 636.47,-276 634.47,-276 634.47,-286.58 634.47,-295.17"/>
</g>
<!-- Han Weí 韩韦​ (1929&#45;2008)​ -->
<g id="node12" class="node">
<title>Han Weí 韩韦​ (1929&#45;2008)​</title>
<g id="a_node12"><a xlink:title="nan">
<polygon fill="none" stroke="black" points="1127,-252 957,-252 957,-216 1127,-216 1127,-252"/>
<text text-anchor="middle" x="1042" y="-230.3" font-family="Times,serif" font-size="14.00">Han Weí 韩韦​ (1929&#45;2008)​</text>
</a>
</g>
</g>
<!-- Zhu 3rd Gen (Han Wei Mother)&#45;&gt;Han Weí 韩韦​ (1929&#45;2008)​ -->
<g id="edge11" class="edge">
<title>Zhu 3rd Gen (Han Wei Mother)&#45;&gt;Han Weí 韩韦​ (1929&#45;2008)​</title>
<path fill="none" stroke="black" d="M1009.54,-291.08C1009.54,-291.08 1009.54,-262.22 1009.54,-262.22"/>
<polygon fill="black" stroke="black" points="1013.04,-262.22 1009.54,-252.22 1006.04,-262.22 1013.04,-262.22"/>
</g>
<!-- Han Hou De 韩厚德  -->
<g id="node11" class="node">
<title>Han Hou De 韩厚德 </title>
<g id="a_node11"><a xlink:title="Father of Han Wei: 5th son. Owned property in Kaifeng, son of a county governor, well educated and could speak English, became an opium addict and sold most of the family belongings. Two wives, both rich. Second wife was of Manchurian descent.">
<polygon fill="none" stroke="black" points="669,-252 533,-252 533,-216 669,-216 669,-252"/>
<text text-anchor="middle" x="601" y="-230.3" font-family="Times,serif" font-size="14.00">Han Hou De 韩厚德 </text>
</a>
</g>
</g>
<!-- Han Hou De Mother&#45;&gt;Han Hou De 韩厚德  -->
<g id="edge10" class="edge">
<title>Han Hou De Mother&#45;&gt;Han Hou De 韩厚德 </title>
<path fill="none" stroke="black" d="M652.74,-291.78C652.74,-291.78 652.74,-262.03 652.74,-262.03"/>
<polygon fill="black" stroke="black" points="656.24,-262.03 652.74,-252.03 649.24,-262.03 656.24,-262.03"/>
</g>
<!-- Wu Lan Cheng 吴兰成 -->
<g id="node13" class="node">
<title>Wu Lan Cheng 吴兰成</title>
<g id="a_node13"><a xlink:title="nan">
<ellipse fill="none" stroke="black" cx="783" cy="-234" rx="95.58" ry="18"/>
<text text-anchor="middle" x="783" y="-230.3" font-family="Times,serif" font-size="14.00">Wu Lan Cheng 吴兰成</text>
</a>
</g>
</g>
<!-- Han Hou De 韩厚德 &#45;&gt;Wu Lan Cheng 吴兰成 -->
<g id="edge12" class="edge">
<title>Han Hou De 韩厚德 &#45;&gt;Wu Lan Cheng 吴兰成</title>
<path fill="none" stroke="black" d="M669.03,-232C674.99,-232 681.08,-232 687.21,-232"/>
<path fill="none" stroke="transparent" d="M669.03,-234C674.99,-234 681.08,-234 687.21,-234"/>
<path fill="none" stroke="black" d="M669.03,-236C674.99,-236 681.08,-236 687.21,-236"/>
</g>
<!-- Han Xiao Feng 韩小峰 -->
<g id="node15" class="node">
<title>Han Xiao Feng 韩小峰</title>
<g id="a_node15"><a xlink:title="nan">
<polygon fill="none" stroke="black" points="539,-180 391,-180 391,-144 539,-144 539,-180"/>
<text text-anchor="middle" x="465" y="-158.3" font-family="Times,serif" font-size="14.00">Han Xiao Feng 韩小峰</text>
</a>
</g>
</g>
<!-- Han Hou De 韩厚德 &#45;&gt;Han Xiao Feng 韩小峰 -->
<g id="edge14" class="edge">
<title>Han Hou De 韩厚德 &#45;&gt;Han Xiao Feng 韩小峰</title>
<path fill="none" stroke="black" d="M548,-215.83C548,-194.5 548,-162 548,-162 548,-162 547.11,-162 547.11,-162"/>
<polygon fill="black" stroke="black" points="549.12,-158.5 539.12,-162 549.12,-165.5 549.12,-158.5"/>
</g>
<!-- Han Yi 韩益 -->
<g id="node16" class="node">
<title>Han Yi 韩益</title>
<g id="a_node16"><a xlink:title="nan">
<polygon fill="none" stroke="black" points="645,-180 557,-180 557,-144 645,-144 645,-180"/>
<text text-anchor="middle" x="601" y="-158.3" font-family="Times,serif" font-size="14.00">Han Yi 韩益</text>
</a>
</g>
</g>
<!-- Han Hou De 韩厚德 &#45;&gt;Han Yi 韩益 -->
<g id="edge15" class="edge">
<title>Han Hou De 韩厚德 &#45;&gt;Han Yi 韩益</title>
<path fill="none" stroke="black" d="M601,-215.83C601,-215.83 601,-190.41 601,-190.41"/>
<polygon fill="black" stroke="black" points="604.5,-190.41 601,-180.41 597.5,-190.41 604.5,-190.41"/>
</g>
<!-- Wáng Jiān 王坚 ​(1927&#45;2007)​ -->
<g id="node14" class="node">
<title>Wáng Jiān 王坚 ​(1927&#45;2007)​</title>
<g id="a_node14"><a xlink:title="nan">
<ellipse fill="none" stroke="black" cx="1263" cy="-234" rx="117.78" ry="18"/>
<text text-anchor="middle" x="1263" y="-230.3" font-family="Times,serif" font-size="14.00">Wáng Jiān 王坚 ​(1927&#45;2007)​</text>
</a>
</g>
</g>
<!-- Han Weí 韩韦​ (1929&#45;2008)​&#45;&gt;Wáng Jiān 王坚 ​(1927&#45;2007)​ -->
<g id="edge13" class="edge">
<title>Han Weí 韩韦​ (1929&#45;2008)​&#45;&gt;Wáng Jiān 王坚 ​(1927&#45;2007)​</title>
<path fill="none" stroke="black" d="M1127.13,-232C1133.09,-232 1139.15,-232 1145.24,-232"/>
<path fill="none" stroke="transparent" d="M1127.13,-234C1133.09,-234 1139.15,-234 1145.24,-234"/>
<path fill="none" stroke="black" d="M1127.13,-236C1133.09,-236 1139.15,-236 1145.24,-236"/>
</g>
<!-- Han Yóng 韩涌 (1955&#45;) -->
<g id="node17" class="node">
<title>Han Yóng 韩涌 (1955&#45;)</title>
<g id="a_node17"><a xlink:title="nan">
<polygon fill="none" stroke="black" points="1015.5,-180 864.5,-180 864.5,-144 1015.5,-144 1015.5,-180"/>
<text text-anchor="middle" x="940" y="-158.3" font-family="Times,serif" font-size="14.00">Han Yóng 韩涌 (1955&#45;)</text>
</a>
</g>
</g>
<!-- Han Weí 韩韦​ (1929&#45;2008)​&#45;&gt;Han Yóng 韩涌 (1955&#45;) -->
<g id="edge16" class="edge">
<title>Han Weí 韩韦​ (1929&#45;2008)​&#45;&gt;Han Yóng 韩涌 (1955&#45;)</title>
<path fill="none" stroke="black" d="M976.5,-215.83C976.5,-215.83 976.5,-190.41 976.5,-190.41"/>
<polygon fill="black" stroke="black" points="980,-190.41 976.5,-180.41 973,-190.41 980,-190.41"/>
</g>
<!-- Shan Han 韩山 (1958&#45;) -->
<g id="node18" class="node">
<title>Shan Han 韩山 (1958&#45;)</title>
<g id="a_node18"><a xlink:title="nan">
<polygon fill="none" stroke="black" points="1339,-180 1191,-180 1191,-144 1339,-144 1339,-180"/>
<text text-anchor="middle" x="1265" y="-158.3" font-family="Times,serif" font-size="14.00">Shan Han 韩山 (1958&#45;)</text>
</a>
</g>
</g>
<!-- Han Weí 韩韦​ (1929&#45;2008)​&#45;&gt;Shan Han 韩山 (1958&#45;) -->
<g id="edge17" class="edge">
<title>Han Weí 韩韦​ (1929&#45;2008)​&#45;&gt;Shan Han 韩山 (1958&#45;)</title>
<path fill="none" stroke="black" d="M1095.83,-215.96C1095.83,-202.71 1095.83,-187 1095.83,-187 1095.83,-187 1265,-187 1265,-187 1265,-187 1265,-186.32 1265,-186.32"/>
<polygon fill="black" stroke="black" points="1268.5,-190.17 1265,-180.17 1261.5,-190.17 1268.5,-190.17"/>
</g>
<!-- Min Han 韩珉 (1956&#45;​ -->
<g id="node19" class="node">
<title>Min Han 韩珉 (1956&#45;​</title>
<g id="a_node19"><a xlink:title="nan">
<polygon fill="none" stroke="black" points="1172.5,-180 1033.5,-180 1033.5,-144 1172.5,-144 1172.5,-180"/>
<text text-anchor="middle" x="1103" y="-158.3" font-family="Times,serif" font-size="14.00">Min Han 韩珉 (1956&#45;​</text>
</a>
</g>
</g>
<!-- Han Weí 韩韦​ (1929&#45;2008)​&#45;&gt;Min Han 韩珉 (1956&#45;​ -->
<g id="edge18" class="edge">
<title>Han Weí 韩韦​ (1929&#45;2008)​&#45;&gt;Min Han 韩珉 (1956&#45;​</title>
<path fill="none" stroke="black" d="M1064.67,-215.83C1064.67,-215.83 1064.67,-190.41 1064.67,-190.41"/>
<polygon fill="black" stroke="black" points="1068.17,-190.41 1064.67,-180.41 1061.17,-190.41 1068.17,-190.41"/>
</g>
<!-- Wang Xiao Li 王晓黎 -->
<g id="node20" class="node">
<title>Wang Xiao Li 王晓黎</title>
<g id="a_node20"><a xlink:title="nan">
<ellipse fill="none" stroke="black" cx="755" cy="-162" rx="91.78" ry="18"/>
<text text-anchor="middle" x="755" y="-158.3" font-family="Times,serif" font-size="14.00">Wang Xiao Li 王晓黎</text>
</a>
</g>
</g>
<!-- Han Xiao Feng 韩小峰&#45;&gt;Wang Xiao Li 王晓黎 -->
<g id="edge19" class="edge">
<title>Han Xiao Feng 韩小峰&#45;&gt;Wang Xiao Li 王晓黎</title>
<path fill="none" stroke="black" d="M516.5,-180.24C516.5,-187.43 516.5,-194 514.5,-194 514.5,-192 678.23,-192 678.23,-194 676.23,-194 676.23,-181.5 676.23,-172.12"/>
<path fill="none" stroke="transparent" d="M514.5,-180.24C514.5,-187.43 514.5,-194 514.5,-194 514.5,-194 678.23,-194 678.23,-194 678.23,-194 678.23,-181.5 678.23,-172.12"/>
<path fill="none" stroke="black" d="M512.5,-180.24C512.5,-187.43 512.5,-194 514.5,-194 514.5,-196 678.23,-196 678.23,-194 680.23,-194 680.23,-181.5 680.23,-172.12"/>
</g>
<!-- Angelina Han 韩安吉 -->
<g id="node24" class="node">
<title>Angelina Han 韩安吉</title>
<g id="a_node24"><a xlink:title="nan">
<ellipse fill="none" stroke="black" cx="379" cy="-90" rx="90.98" ry="18"/>
<text text-anchor="middle" x="379" y="-86.3" font-family="Times,serif" font-size="14.00">Angelina Han 韩安吉</text>
</a>
</g>
</g>
<!-- Han Xiao Feng 韩小峰&#45;&gt;Angelina Han 韩安吉 -->
<g id="edge23" class="edge">
<title>Han Xiao Feng 韩小峰&#45;&gt;Angelina Han 韩安吉</title>
<path fill="none" stroke="black" d="M430.5,-143.83C430.5,-143.83 430.5,-115.01 430.5,-115.01"/>
<polygon fill="black" stroke="black" points="434,-115.01 430.5,-105.01 427,-115.01 434,-115.01"/>
</g>
<!-- Nathan Han 韩安颉 -->
<g id="node25" class="node">
<title>Nathan Han 韩安颉</title>
<g id="a_node25"><a xlink:title="nan">
<polygon fill="none" stroke="black" points="616.5,-108 487.5,-108 487.5,-72 616.5,-72 616.5,-108"/>
<text text-anchor="middle" x="552" y="-86.3" font-family="Times,serif" font-size="14.00">Nathan Han 韩安颉</text>
</a>
</g>
</g>
<!-- Han Xiao Feng 韩小峰&#45;&gt;Nathan Han 韩安颉 -->
<g id="edge24" class="edge">
<title>Han Xiao Feng 韩小峰&#45;&gt;Nathan Han 韩安颉</title>
<path fill="none" stroke="black" d="M513.25,-143.83C513.25,-143.83 513.25,-118.41 513.25,-118.41"/>
<polygon fill="black" stroke="black" points="516.75,-118.41 513.25,-108.41 509.75,-118.41 516.75,-118.41"/>
</g>
<!-- Guāng Bīng -->
<g id="node21" class="node">
<title>Guāng Bīng</title>
<g id="a_node21"><a xlink:title="nan">
<ellipse fill="none" stroke="black" cx="1412" cy="-162" rx="55.49" ry="18"/>
<text text-anchor="middle" x="1412" y="-158.3" font-family="Times,serif" font-size="14.00">Guāng Bīng</text>
</a>
</g>
</g>
<!-- Han Yóng 韩涌 (1955&#45;)&#45;&gt;Guāng Bīng -->
<g id="edge20" class="edge">
<title>Han Yóng 韩涌 (1955&#45;)&#45;&gt;Guāng Bīng</title>
<path fill="none" stroke="black" d="M998,-180.13C998,-190.31 998,-201 996,-201 996,-199 1368.7,-199 1368.7,-201 1366.7,-201 1366.7,-184.99 1366.7,-173.49"/>
<path fill="none" stroke="transparent" d="M996,-180.13C996,-190.31 996,-201 996,-201 996,-201 1368.7,-201 1368.7,-201 1368.7,-201 1368.7,-184.99 1368.7,-173.49"/>
<path fill="none" stroke="black" d="M994,-180.13C994,-190.31 994,-201 996,-201 996,-203 1368.7,-203 1368.7,-201 1370.7,-201 1370.7,-184.99 1370.7,-173.49"/>
</g>
<!-- Julie Han (Zhū Jiāng Yí 朱江怡)​ -->
<g id="node22" class="node">
<title>Julie Han (Zhū Jiāng Yí 朱江怡)​</title>
<g id="a_node22"><a xlink:title="nan">
<ellipse fill="none" stroke="black" cx="1616" cy="-162" rx="130.78" ry="18"/>
<text text-anchor="middle" x="1616" y="-158.3" font-family="Times,serif" font-size="14.00">Julie Han (Zhū Jiāng Yí 朱江怡)​</text>
</a>
</g>
</g>
<!-- Shan Han 韩山 (1958&#45;)&#45;&gt;Julie Han (Zhū Jiāng Yí 朱江怡)​ -->
<g id="edge21" class="edge">
<title>Shan Han 韩山 (1958&#45;)&#45;&gt;Julie Han (Zhū Jiāng Yí 朱江怡)​</title>
<path fill="none" stroke="black" d="M1332.64,-143.86C1332.64,-137.54 1332.64,-132 1334.64,-132 1334.64,-130 1616,-130 1616,-132 1618,-132 1618,-137.54 1618,-143.86"/>
<path fill="none" stroke="transparent" d="M1334.64,-143.86C1334.64,-137.54 1334.64,-132 1334.64,-132 1334.64,-132 1616,-132 1616,-132 1616,-132 1616,-137.54 1616,-143.86"/>
<path fill="none" stroke="black" d="M1336.64,-143.86C1336.64,-137.54 1336.64,-132 1334.64,-132 1334.64,-134 1616,-134 1616,-132 1614,-132 1614,-137.54 1614,-143.86"/>
</g>
<!-- Yuming Han 韩 玉明 (1956&#45;​ -->
<g id="node23" class="node">
<title>Yuming Han 韩 玉明 (1956&#45;​</title>
<g id="a_node23"><a xlink:title="nan">
<ellipse fill="none" stroke="black" cx="1880" cy="-162" rx="115.08" ry="18"/>
<text text-anchor="middle" x="1880" y="-158.3" font-family="Times,serif" font-size="14.00">Yuming Han 韩 玉明 (1956&#45;​</text>
</a>
</g>
</g>
<!-- Min Han 韩珉 (1956&#45;​&#45;&gt;Yuming Han 韩 玉明 (1956&#45;​ -->
<g id="edge22" class="edge">
<title>Min Han 韩珉 (1956&#45;​&#45;&gt;Yuming Han 韩 玉明 (1956&#45;​</title>
<path fill="none" stroke="black" d="M1160.93,-180.18C1160.93,-193.04 1160.93,-208 1158.93,-208 1158.93,-206 1880,-206 1880,-208 1878,-208 1878,-193.04 1878,-180.18"/>
<path fill="none" stroke="transparent" d="M1158.93,-180.18C1158.93,-193.04 1158.93,-208 1158.93,-208 1158.93,-208 1880,-208 1880,-208 1880,-208 1880,-193.04 1880,-180.18"/>
<path fill="none" stroke="black" d="M1156.93,-180.18C1156.93,-193.04 1156.93,-208 1158.93,-208 1158.93,-210 1880,-210 1880,-208 1882,-208 1882,-193.04 1882,-180.18"/>
</g>
<!-- ​Lisa Yīn Han 韩茵​ (1991&#45;)​ -->
<g id="node26" class="node">
<title>​Lisa Yīn Han 韩茵​ (1991&#45;)​</title>
<g id="a_node26"><a xlink:title="nan">
<ellipse fill="none" stroke="black" cx="1199" cy="-90" rx="109.38" ry="18"/>
<text text-anchor="middle" x="1199" y="-86.3" font-family="Times,serif" font-size="14.00">​Lisa Yīn Han 韩茵​ (1991&#45;)​</text>
</a>
</g>
</g>
<!-- Min Han 韩珉 (1956&#45;​&#45;&gt;​Lisa Yīn Han 韩茵​ (1991&#45;)​ -->
<g id="edge25" class="edge">
<title>Min Han 韩珉 (1956&#45;​&#45;&gt;​Lisa Yīn Han 韩茵​ (1991&#45;)​</title>
<path fill="none" stroke="black" d="M1131.15,-143.83C1131.15,-143.83 1131.15,-114.54 1131.15,-114.54"/>
<polygon fill="black" stroke="black" points="1134.65,-114.54 1131.15,-104.54 1127.65,-114.54 1134.65,-114.54"/>
</g>
<!-- Leo Liǔ Han (1984&#45; -->
<g id="node27" class="node">
<title>Leo Liǔ Han (1984&#45;</title>
<g id="a_node27"><a xlink:title="nan">
<polygon fill="none" stroke="black" points="1071.5,-108 942.5,-108 942.5,-72 1071.5,-72 1071.5,-108"/>
<text text-anchor="middle" x="1007" y="-86.3" font-family="Times,serif" font-size="14.00">Leo Liǔ Han (1984&#45;</text>
</a>
</g>
</g>
<!-- Min Han 韩珉 (1956&#45;​&#45;&gt;Leo Liǔ Han (1984&#45; -->
<g id="edge26" class="edge">
<title>Min Han 韩珉 (1956&#45;​&#45;&gt;Leo Liǔ Han (1984&#45;</title>
<path fill="none" stroke="black" d="M1046.17,-143.83C1046.17,-143.83 1046.17,-118.41 1046.17,-118.41"/>
<polygon fill="black" stroke="black" points="1049.67,-118.41 1046.17,-108.41 1042.67,-118.41 1049.67,-118.41"/>
</g>
<!-- Chloe Isabel Han -->
<g id="node28" class="node">
<title>Chloe Isabel Han</title>
<g id="a_node28"><a xlink:title="nan">
<ellipse fill="none" stroke="black" cx="1400" cy="-90" rx="74.19" ry="18"/>
<text text-anchor="middle" x="1400" y="-86.3" font-family="Times,serif" font-size="14.00">Chloe Isabel Han</text>
</a>
</g>
</g>
<!-- Leo Liǔ Han (1984&#45;&#45;&gt;Chloe Isabel Han -->
<g id="edge27" class="edge">
<title>Leo Liǔ Han (1984&#45;&#45;&gt;Chloe Isabel Han</title>
<path fill="none" stroke="black" d="M1060.83,-108.14C1060.83,-114.46 1060.83,-120 1058.83,-120 1058.83,-118 1330.27,-118 1330.27,-120 1328.27,-120 1328.27,-105.17 1328.27,-96.36"/>
<path fill="none" stroke="transparent" d="M1058.83,-108.14C1058.83,-114.46 1058.83,-120 1058.83,-120 1058.83,-120 1330.27,-120 1330.27,-120 1330.27,-120 1330.27,-105.17 1330.27,-96.36"/>
<path fill="none" stroke="black" d="M1056.83,-108.14C1056.83,-114.46 1056.83,-120 1058.83,-120 1058.83,-122 1330.27,-122 1330.27,-120 1332.27,-120 1332.27,-105.17 1332.27,-96.36"/>
</g>
<!-- Lennon Rose Han (2020&#45;) -->
<g id="node29" class="node">
<title>Lennon Rose Han (2020&#45;)</title>
<g id="a_node29"><a xlink:title="nan">
<ellipse fill="none" stroke="black" cx="1007" cy="-18" rx="105.88" ry="18"/>
<text text-anchor="middle" x="1007" y="-14.3" font-family="Times,serif" font-size="14.00">Lennon Rose Han (2020&#45;)</text>
</a>
</g>
</g>
<!-- Leo Liǔ Han (1984&#45;&#45;&gt;Lennon Rose Han (2020&#45;) -->
<g id="edge28" class="edge">
<title>Leo Liǔ Han (1984&#45;&#45;&gt;Lennon Rose Han (2020&#45;)</title>
<path fill="none" stroke="black" d="M1007,-71.83C1007,-71.83 1007,-46.41 1007,-46.41"/>
<polygon fill="black" stroke="black" points="1010.5,-46.41 1007,-36.41 1003.5,-46.41 1010.5,-46.41"/>
</g>
</g>
</svg>
